:SAMPLES-PER-SECOND 30
:FULLY-SPECIFIED
:DEGREES
140
root  -57.3447 39.9184 4.70487 179.278 57.2159 -178.714
RightUpLeg  3.10617 -4.43389 -1.81978
RightLeg  13.5354 22.3004 2.04066
RightFoot  -15.523 -0.145535 -1.11476
RightToes  5.47152e-009 0 -3.6325e-017
Spine  4.45222 0.158296 8.57695
Spine1  14.4927 1.10523 -1.78436
HEad  -5.46157 -18.7218 4.70354
LeftShoulder1  -0.0046617 3.51778 -27.2934
LeftArm  -21.1469 14.3766 -39.8846
LeftForeArm  94.873 -78.0832 -113.721
LeftHand  -0.000818648 4.6538 -4.64901
RightShoulder  -0.543646 -5.11993 26.8649
RightArm  -14.1254 -7.32004 42.7346
RightForeArm  102.315 74.2148 134.055
RightHand  -0.0326717 -5.09779 -2.24455
LeftUpLeg  -12.6306 -2.31809 7.73005
LeftLeg  10.5905 -14.1623 -0.989872
LeftFoot  0.955351 0.747637 -6.98291
LeftToes  -4.29285e-010 1.49941e-010 2.15559e-012
141
root  -56.9679 39.7939 4.05497 178.576 60.9773 -179.365
RightUpLeg  2.71649 5.08359 -1.4524
RightLeg  15.7992 16.6405 1.92653
RightFoot  -16.8912 -0.153044 -0.796416
RightToes  5.47152e-009 0 -3.6325e-017
Spine  4.2713 0.930431 5.97373
Spine1  14.8804 1.57143 -1.10955
HEad  -5.0638 -18.068 5.13729
LeftShoulder1  -0.046959 3.64433 -27.2748
LeftArm  -20.6641 14.5782 -39.9252
LeftForeArm  96.3312 -77.9347 -115.275
LeftHand  0.00102213 4.53126 -3.98167
RightShoulder  -0.473285 -4.91374 26.6961
RightArm  -14.2449 -7.62351 42.4571
RightForeArm  100.743 74.4278 133.063
RightHand  -0.0370055 -4.65082 -2.35005
LeftUpLeg  -12.2125 -0.829171 7.70092
LeftLeg  13.9959 -11.7986 -2.23772
LeftFoot  -1.15347 0.504709 -5.61298
LeftToes  -4.29285e-010 1.49941e-010 2.15559e-012
142
root  -56.6193 39.6041 3.44632 174.46 62.7054 177.155
RightUpLeg  2.18631 13.9662 -3.00111
RightLeg  20.5675 8.54362 3.49137
RightFoot  -18.4439 -0.154947 -0.508624
RightToes  5.47152e-009 0 -3.6325e-017
Spine  6.24638 0.906306 1.20257
Spine1  13.5776 0.853545 0.723238
HEad  -4.7897 -16.9737 5.83743
LeftShoulder1  -0.0811807 3.74765 -27.0997
LeftArm  -20.1787 14.8781 -39.6427
LeftForeArm  96.3329 -77.9235 -115.35
LeftHand  -0.00622116 4.73315 -4.21434
RightShoulder  -0.586892 -5.22701 27.3064
RightArm  -13.9816 -7.2722 42.0938
RightForeArm  98.7482 74.9029 131.041
RightHand  -0.0388644 -4.11962 -1.77483
LeftUpLeg  -11.0882 -1.50029 5.96867
LeftLeg  16.8146 -9.55717 -2.78231
LeftFoot  -3.6384 0.421765 -5.93895
LeftToes  -4.29285e-010 1.49941e-010 2.15559e-012
143
root  -56.2381 39.5193 2.82236 172.107 65.7407 175.053
RightUpLeg  -0.199031 11.3951 -4.91702
RightLeg  26.725 9.49908 4.96139
RightFoot  -17.629 -0.0425225 1.44177
RightToes  5.47152e-009 0 -3.6325e-017
Spine  6.90377 1.24908 -0.295738
Spine1  13.2847 1.29964 -0.346779
HEad  -4.58441 -16.6056 5.86834
LeftShoulder1  -0.0641545 3.69581 -27.1928
LeftArm  -19.5075 14.6529 -38.514
LeftForeArm  94.2422 -78.0135 -114.017
LeftHand  0.0101897 4.27893 -3.84323
RightShoulder  -0.677699 -5.47928 27.6296
RightArm  -13.9933 -7.97818 42.6452
RightForeArm  99.8703 74.6924 132.007
RightHand  -0.035816 -4.97619 -2.86782
LeftUpLeg  -9.77264 0.502073 4.96052
LeftLeg  18.5541 -8.66088 -2.8387
LeftFoot  -5.90401 0.309563 -5.74067
LeftToes  -4.29285e-010 1.49941e-010 2.15559e-012
144
root  -55.8925 39.4835 2.22625 170.968 69.6071 174.24
RightUpLeg  -3.41585 8.24181 -6.03611
RightLeg  33.2306 8.92489 6.00997
RightFoot  -15.2621 0.100967 6.52927
RightToes  5.47152e-009 0 -3.6325e-017
Spine  7.32578 1.63961 0.0146501
Spine1  13.3943 2.08843 -2.32832
HEad  -4.79643 -15.2068 5.25374
LeftShoulder1  -0.122046 3.86782 -27.3587
LeftArm  -19.4128 14.3981 -37.8178
LeftForeArm  93.086 -78.0734 -113.177
LeftHand  -0.00284846 4.60393 -3.92173
RightShoulder  -0.63631 -5.35138 27.7278
RightArm  -13.9072 -8.08249 43.0036
RightForeArm  101.643 74.9063 131.553
RightHand  -0.0374781 -4.49927 -1.39169
LeftUpLeg  -8.44926 2.95966 4.75455
LeftLeg  20.0745 -7.33953 -2.54593
LeftFoot  -7.757 0.202661 -5.00558
LeftToes  -4.29285e-010 1.49941e-010 2.15559e-012
